<?xml version="1.0" encoding="UTF-8" standalone="no"?>
<!-- Created with Inkscape (http://www.inkscape.org/) -->

<svg
   width="1920"
   height="1080"
   viewBox="0 0 1920 1080"
   version="1.1"
   id="svg5"
   inkscape:version="1.1.2 (b8e25be833, 2022-02-05)"
   sodipodi:docname="Logo.svg"
   xmlns:inkscape="http://www.inkscape.org/namespaces/inkscape"
   xmlns:sodipodi="http://sodipodi.sourceforge.net/DTD/sodipodi-0.dtd"
   xmlns="http://www.w3.org/2000/svg"
   xmlns:svg="http://www.w3.org/2000/svg">
  <sodipodi:namedview
     id="namedview7"
     pagecolor="#505050"
     bordercolor="#eeeeee"
     borderopacity="1"
     inkscape:pageshadow="0"
     inkscape:pageopacity="0"
     inkscape:pagecheckerboard="0"
     inkscape:document-units="px"
     showgrid="false"
     inkscape:snap-object-midpoints="true"
     inkscape:snap-others="true"
     inkscape:snap-nodes="true"
     inkscape:zoom="0.36599323"
     inkscape:cx="875.69925"
     inkscape:cy="438.5327"
     inkscape:window-width="1366"
     inkscape:window-height="746"
     inkscape:window-x="-8"
     inkscape:window-y="-8"
     inkscape:window-maximized="1"
     inkscape:current-layer="layer1" />
  <defs
     id="defs2" />
  <g
     inkscape:label="Слой 1"
     inkscape:groupmode="layer"
     id="layer1">
    <rect
       style="fill:none;stroke:#000000;stroke-width:1.90696;stroke-opacity:0"
       id="rect868"
       width="1919.6619"
       height="1082.1586"
       x="0.16909517"
       y="-0.3956936" />
    <rect
       style="fill:#000000;stroke:#000000;stroke-width:0.43453;stroke-opacity:0"
       id="rect1133"
       width="1256.6274"
       height="11.181401"
       x="302.90671"
       y="465.72842" />
    <path
       style="fill:#000000;stroke:#000000;stroke-opacity:0"
       id="path1474"
       d="m 401.20501,64.912495 c -4.29565,12.011141 -10.07104,23.334939 -13.50628,35.663265 -2.80657,13.25489 -3.83656,26.86616 -2.99259,40.37625 1.30769,12.04888 2.77762,24.4686 7.57396,35.69098 3.36776,8.11113 7.23064,15.96081 12.3553,23.10572 5.89971,8.13143 13.84218,14.10624 21.717,20.14091 5.26173,6.05696 11.34272,9.62887 18.8965,12.0248 9.14964,2.81482 18.65279,4.01834 28.16134,4.76921 11.22815,0.67702 22.43071,0.71183 33.58132,-0.80585 27.46502,-5.89878 49.19162,-23.22814 73.56565,-37.50812 4.69545,-2.75091 6.00807,-4.25557 10.1143,-7.85599 7.62139,-8.79858 16.22556,-16.77463 22.33957,-26.73888 7.66513,-10.39055 14.28931,-21.61503 20.36665,-32.9969 5.05921,-7.9785 7.82266,-17.13032 12.72656,-25.19638 1.90608,-3.13517 4.17105,-6.038093 6.19941,-9.095573 5.32077,-7.883956 11.14307,-15.326326 16.38023,-23.27622 12.89495,-14.579875 49.12241,-30.706719 -42.40332,23.19301 -0.24984,0.14713 0.53426,-0.609775 0.75845,-0.425898 0.56811,0.465968 0.82945,1.232658 1.07114,1.926528 0.48547,1.39379 0.72953,2.860273 1.0943,4.290413 2.87188,17.75401 2.86402,35.77305 0.9947,53.61041 -5.81958,28.83022 -15.00608,56.96683 -24.21943,84.87771 -12.62535,39.68468 -32.02617,76.7101 -55.23056,111.19122 -5.74575,8.53802 -11.91226,16.78523 -17.86839,25.17784 -13.18415,16.7505 -20.35982,27.28246 -35.78264,41.67473 -5.60701,5.23235 -25.28839,16.478 -17.88639,14.4714 10.49461,-2.84497 21.32202,-8.37618 27.7508,-17.14553 3.922,-5.34991 -12.59736,4.38143 -19.1501,5.41351 -7.22963,1.1387 -14.62054,0.70461 -21.93081,1.05692 -39.39028,-2.39059 -76.60475,-16.00105 -112.31997,-31.88909 0,0 -45.23115,30.13602 -45.23115,30.13602 v 0 c 36.65424,15.22579 74.36086,29.16773 114.08708,33.46693 7.44557,0.0519 14.92802,0.89749 22.33672,0.15562 32.1141,-3.21574 57.52511,-24.28513 84.21142,-41.29777 6.36418,-4.05719 11.71562,-9.5565 17.07005,-14.87567 14.323,-14.22867 22.13916,-25.68907 34.50951,-41.87371 30.324,-43.28823 58.94936,-88.11424 74.98679,-138.93626 9.55632,-28.46426 19.36314,-57.12553 25.03136,-86.64706 1.71141,-18.58567 1.57423,-37.364686 -0.9358,-55.884543 -1.05608,-4.056032 -1.25514,-6.565575 -3.7325,-9.963222 -15.19382,-20.837977 -47.32918,13.44172 -59.8896,31.282842 -5.45632,7.742743 -11.04943,15.390323 -16.19845,23.344043 -6.97218,11.0506 -11.9637,23.06071 -18.34032,34.44401 -6.50498,11.18238 -13.19324,22.28589 -20.91213,32.6844 -6.81437,9.0216 -14.56465,17.41757 -22.83205,25.11635 -16.23108,11.98837 -46.01581,27.76492 33.25959,-17.738 1.87057,-1.07368 -3.73062,2.17913 -5.68996,3.08066 -2.0858,0.95972 -4.25518,1.73105 -6.42141,2.492 -2.07897,0.73029 -4.20484,1.31953 -6.30725,1.97929 -10.75005,2.15658 -21.49021,2.16461 -32.42198,1.57853 -9.17704,-0.42658 -18.38785,-1.16399 -27.28233,-3.61738 -7.43769,-2.47895 -12.68827,-3.76935 -17.86681,-10.36453 -7.44402,-5.70362 -15.40175,-10.80465 -20.87402,-18.66305 -4.86402,-6.81456 -8.37234,-14.3839 -11.76201,-22.01623 -4.55698,-10.57535 -5.97948,-22.27444 -6.99872,-33.66256 -0.35418,-12.9878 0.57299,-26.100934 3.92974,-38.697969 3.88956,-12.06746 9.20618,-23.574777 14.5518,-35.056536 0,0 -52.63427,23.8134 -52.63427,23.8134 z" />
    <path
       style="fill:#000000;stroke:#000000;stroke-opacity:0"
       id="path1490"
       d="m 761.67968,257.69046 c -21.83863,11.61088 -16.88531,8.88652 -58.42716,34.40659 -3.23251,1.9858 -7.92761,6.94766 -10.05242,9.88571 -3.53078,4.88215 -5.58723,9.88246 -8.16411,15.29734 -7.86524,18.35248 -9.27548,38.30044 -10.36124,57.97829 -0.60203,17.48397 -0.66577,35.38905 5.72887,51.88736 8.32515,12.60477 22.1307,18.22563 36.05017,22.36845 13.98191,4.0727 27.92724,3.05057 41.94063,0.0543 8.17087,-2.30367 16.29914,-4.99488 23.68331,-9.26658 55.30051,-31.99107 38.87341,-17.65387 59.60311,-36.62795 18.39286,-16.16169 29.77416,-37.34863 39.98149,-59.18593 11.25298,-25.25588 16.45863,-52.14124 19.11915,-79.47428 -0.42747,-13.78539 2.75919,-32.26642 -4.53761,-44.93576 -1.08837,-1.88971 -2.7081,-3.41884 -4.06215,-5.12826 -1.94498,-1.34825 -3.73888,-2.946 -5.83494,-4.04476 -14.12537,-7.40457 -36.20092,-7.99323 -51.80302,-9.20965 -19.5625,-1.10114 -39.52643,0.4953 -56.87206,10.57285 -61.4285,35.68902 -46.04904,22.47931 -75.49935,51.84669 0,0 50.22372,-20.67823 50.22372,-20.67823 v 0 c 23.56742,-21.70437 19.98919,-16.00635 -17.74027,3.10106 -4.79641,2.42905 9.33624,-5.41558 14.33801,-7.38739 9.04449,-3.56555 17.8792,-4.63181 27.47516,-5.07811 4.22715,-0.1966 8.46331,0.0486 12.69497,0.0729 18.04822,1.32262 37.54645,1.90886 53.94968,10.27002 1.06787,1.19252 2.3554,2.21999 3.20359,3.57757 7.12973,11.41156 4.07473,29.30063 4.45701,41.87517 -2.7577,26.74191 -7.97481,53.1063 -19.62256,77.5723 -10.66313,21.65855 -23.06424,42.22895 -42.23331,57.51047 -19.2046,14.34843 -8.42553,5.92163 37.70734,-20.49958 1.72029,-0.98525 -3.46489,1.92743 -5.19187,2.90087 -7.59502,4.28105 -3.17136,2.24545 -11.49263,5.27675 -2.08099,0.75807 -4.15792,1.52725 -6.23688,2.29087 -13.28107,3.82935 -26.66745,5.7411 -40.31568,2.36358 -12.44927,-3.05871 -25.13536,-7.26518 -33.08385,-18.00832 -6.46929,-15.54045 -5.9623,-32.74179 -5.29495,-49.29233 1.19339,-19.1158 3.02732,-38.47694 11.58785,-55.93567 4.15062,-7.33838 7.97388,-13.43271 14.49184,-18.90887 1.69911,-1.42753 7.27696,-5.05303 5.32752,-3.9926 -12.59625,6.85191 -61.53729,35.17707 -39.85071,22.63152 0,0 45.11335,-36.08641 45.11335,-36.08641 z" />
    <path
       style="fill:#000000;stroke:#000000;stroke-opacity:0"
       id="path1512"
       d="m 984.54625,218.82673 c -9.25187,19.44133 -14.501,40.24892 -19.05621,61.1933 -4.21723,25.5497 -8.40221,51.53121 -7.43575,77.53508 0.21303,5.7318 0.89633,11.43643 1.3445,17.15465 2.64459,16.49242 6.321,32.88195 11.9348,48.63933 2.12359,5.9607 5.53896,15.27805 10.4312,20.00083 2.35642,2.2748 5.58781,3.41849 8.38172,5.12774 3.51399,0.36713 7.02816,1.4703 10.54199,1.10138 4.2031,-0.44129 8.4493,-1.52016 12.1895,-3.488 20.5954,-10.83606 40.7789,-22.48225 60.5382,-34.77695 15.1412,-9.4212 32.1056,-30.63673 44.0513,-43.78021 30.9674,-35.50637 54.8465,-75.89776 77.2525,-117.09145 2.8456,-6.81678 12.6344,-21.87707 11.165,-30.30702 -0.2828,-1.62265 -1.1843,-4.76976 -2.7044,-4.13554 -54.309,22.65871 -46.5524,10.63395 -58.8458,36.12253 -14.1011,40.71991 -12.2596,84.49982 -10.3289,126.89094 3.0005,21.45223 -0.7804,54.70952 17.8748,70.62628 3.1286,2.66937 7.2952,3.79933 10.9428,5.699 0,0 46.6736,-31.05389 46.6736,-31.05389 v 0 c -3.2599,-1.12177 -6.9308,-1.42397 -9.7798,-3.36531 -18.4876,-12.59761 -15.6629,-47.32165 -18.7471,-66.09283 -1.5626,-37.85842 -2.7836,-77.76669 10.068,-114.11696 1.3856,-3.91907 3.4612,-7.55885 5.1917,-11.33827 1.8087,-2.05904 7.9684,-7.20042 5.426,-6.17712 -16.4251,6.61105 -31.776,15.6308 -47.7721,23.22133 -0.3497,0.16598 0.7115,-1.28691 0.7337,-0.90039 0.096,1.67356 -0.083,3.38002 -0.4977,5.00428 -2.169,8.49795 -5.3785,14.1443 -9.1765,22.28676 -21.4768,41.13033 -45.5813,80.80123 -76.834,115.39715 -9.9461,10.5617 -20.6273,22.5179 -31.7145,32.01915 -4.6279,3.96594 -20.2286,13.3464 -14.6016,11.00483 12.3719,-5.14834 23.6423,-12.64566 35.129,-19.5469 3.319,-1.99409 -6.8635,3.70817 -10.5792,4.79721 -2.8598,0.83818 -5.9292,0.60676 -8.8938,0.91013 -2.3779,-0.90886 -5.1284,-1.1585 -7.1338,-2.72659 -4.7446,-3.70991 -8.5535,-13.05035 -10.4988,-17.99477 -5.9594,-15.14668 -9.5827,-31.07699 -11.6997,-47.1877 -1.7053,-31.51484 0.6147,-62.48758 7.1372,-93.41445 5.079,-20.95794 10.8712,-42.09312 22.1849,-60.6804 0,0 -52.89275,23.44285 -52.89275,23.44285 z" />
    <path
       style="fill:#000000;stroke:#000000;stroke-opacity:0"
       id="path1566"
       d="m 1325.912,429.08662 c 10.0229,-39.52942 18.3339,-79.47813 25.9409,-119.53483 5.9934,-32.42868 10.3663,-65.19392 17.9755,-97.2995 0.7154,-1.98611 1.2435,-4.05004 2.1462,-5.95833 6.3847,-13.49698 74.229,-50.74994 -39.9792,21.38184 -1.3487,0.85186 2.9626,-1.22637 4.5196,-1.57394 2.1702,-0.48448 4.4056,-0.60685 6.6084,-0.91027 22.4772,-1.31922 45.0033,-0.32202 67.5008,-0.67985 12.5828,-0.40782 25.1232,-1.54845 37.6885,-2.26953 9.6412,-0.51083 19.2987,-0.57072 28.9508,-0.66566 11.6632,-0.19474 23.328,-0.19861 34.9924,-0.19902 0,0 45.6958,-33.19682 45.6958,-33.19682 v 0 c -11.4824,-0.0105 -22.9651,-0.0271 -34.4463,-0.21286 -9.6255,-0.0634 -19.2579,-0.17925 -28.878,0.22578 -12.9145,0.71112 -25.7614,2.2075 -38.6601,3.13827 -22.3072,1.15823 -44.6435,-0.10128 -66.9711,-0.009 -0.043,7.3e-4 -11.0249,0.0433 -11.9442,0.53826 -34.8627,18.77016 -51.6767,16.36931 -58.2034,45.06653 -5.6377,31.79701 -8.7154,64.00811 -14.6227,95.77101 -7.7863,40.64832 -15.8694,81.72626 -30.7279,120.4734 0,0 52.414,-24.08575 52.414,-24.08575 z" />
    <path
       style="fill:#d40000;stroke:#000000;stroke-opacity:0"
       id="path1678"
       d="m 576.85247,562.2992 c -12.68937,-10.23662 -24.90929,-21.03537 -38.84375,-29.56878 -13.81255,-7.23851 -29.42573,-7.72324 -44.63273,-6.54403 -30.99036,6.07873 -56.87779,25.76521 -82.69844,43.18237 -3.97347,2.68027 -12.4253,15.59415 -14.92529,19.18161 -11.35287,17.1474 -20.02614,36.4259 -18.52184,57.50541 0.32703,4.58266 1.49553,9.0661 2.2433,13.59915 13.57925,40.94498 50.32735,64.70517 83.51061,88.96599 16.56049,12.79509 34.37346,24.05708 50.38666,37.57382 6.09345,5.14347 13.26752,11.86713 17.61371,18.77633 1.871,2.97436 2.97376,6.36761 4.46064,9.55142 0.5349,3.58918 1.48788,7.14061 1.60471,10.76755 0.54588,16.94562 -6.01309,34.23956 -15.05069,48.31677 -2.16577,3.37347 -4.84721,6.38654 -7.27081,9.57982 -2.94254,2.65347 -5.67777,5.55669 -8.82763,7.9604 -3.26714,2.49322 -6.84117,4.56143 -10.36108,6.68288 -3.6792,2.21748 -14.89311,8.56668 -11.22668,6.32814 11.92396,-7.28016 24.37763,-13.70915 36.00391,-21.45585 3.44391,-2.29472 -7.51486,3.47649 -11.35088,5.02929 -3.53912,1.43262 -7.1746,2.61458 -10.7619,3.92187 -19.56451,6.25983 -36.43486,8.50628 -56.68006,5.054 -12.12183,-3.36253 -22.11253,-10.52594 -32.25413,-17.61285 0,0 -46.82143,29.70962 -46.82143,29.70962 v 0 c 10.30128,7.78883 20.52141,15.58671 32.78541,20.12227 3.2126,0.76891 6.38001,1.76008 9.6378,2.30674 16.52895,2.77357 33.21345,-1.13469 49.1614,-5.15919 32.00171,-10.73981 47.46507,-22.13356 82.28144,-41.9127 6.88496,-3.91134 15.29192,-9.04295 21.26213,-14.34701 3.04798,-2.70789 5.61009,-5.91762 8.41514,-8.87643 12.20145,-18.35263 22.11152,-39.15664 20.51124,-61.89953 -0.29061,-4.1301 -1.5242,-8.13913 -2.2863,-12.2087 -1.76945,-3.52754 -3.12406,-7.29579 -5.30837,-10.58263 -15.50186,-23.32641 -50.2269,-38.09214 -71.15515,-55.98737 -27.33495,-20.40787 -59.25586,-41.12453 -74.27435,-73.12243 -2.02277,-4.30966 -3.19736,-8.96861 -4.79603,-13.45291 -0.52357,-4.25368 -1.42701,-8.47767 -1.57072,-12.76104 -0.6771,-20.18259 8.80874,-38.36689 19.90144,-54.51669 2.50868,-3.22354 4.80965,-6.62007 7.52605,-9.67063 2.58574,-2.90384 11.91384,-9.69197 8.34379,-8.15147 -13.80683,5.95774 -26.3302,14.53491 -39.58688,21.63308 -2.73687,1.46543 5.21459,-3.40638 8.0219,-4.7319 2.72955,-1.28881 5.65236,-2.12482 8.51673,-3.07712 2.65662,-0.88323 5.36021,-1.61833 8.04031,-2.4275 14.22752,-1.91808 28.88169,-1.9065 42.32655,3.80563 14.07804,7.5724 26.41716,17.8013 37.83114,28.94699 0,0 48.81913,-30.43439 48.81913,-30.43439 z" />
    <path
       style="fill:#d40000;stroke:#000000;stroke-opacity:0"
       id="path1710"
       d="m 721.84414,635.24237 c -19.10263,28.80607 -27.90303,63.10669 -36.4188,96.18823 -9.77066,43.29811 -14.38207,87.59417 -13.98258,131.94654 1.92295,24.11058 12.67662,45.20725 33.51833,58.2108 3.74712,2.3379 7.86283,4.02524 11.79424,6.03786 45.64295,16.3992 82.90349,1.69052 125.96494,-14.89746 0,0 41.43898,-32.54696 41.43898,-32.54696 v 0 c -40.436,16.22916 -77.44055,31.42251 -120.85902,16.76764 -3.74456,-1.75103 -7.65469,-3.1846 -11.23367,-5.25309 -20.68243,-11.95355 -29.36869,-30.19217 -31.68583,-53.38028 -1.41115,-43.67246 2.74168,-87.31413 13.12618,-129.82618 9.13552,-33.11695 18.62846,-68.72353 41.55221,-95.28947 0,0 -53.21498,22.04237 -53.21498,22.04237 z" />
    <path
       style="fill:#d40000;stroke:#000000;stroke-opacity:0"
       id="path1712"
       d="m 603.58956,731.15508 c 29.12361,0.84389 58.2468,3.02308 87.28347,5.47928 26.31327,2.27239 52.70265,3.43353 79.08145,4.62429 0,0 45.0346,-32.47997 45.0346,-32.47997 v 0 c -26.44357,-0.65909 -52.88093,-1.75409 -79.22933,-4.19079 -28.49591,-2.3297 -57.11155,-3.39281 -85.45552,-7.37301 0,0 -46.71467,33.9402 -46.71467,33.9402 z" />
    <path
       style="fill:#d40000;stroke:#000000;stroke-opacity:0"
       id="path1730"
       d="m 1110.4678,753.06841 c -14.1283,32.25799 -32.9841,62.2019 -51.5756,92.01661 -37.1401,57.95788 -84.63839,107.92019 -133.85177,155.63108 -29.49046,27.7457 -61.67938,52.4666 -94.1986,76.5282 0,0 51.40166,-20.4403 51.40166,-20.4403 v 0 c 31.48876,-23.9225 62.81044,-48.2742 91.05832,-76.03096 48.65899,-48.54879 95.69729,-99.11469 133.51789,-156.78834 19.9767,-30.9893 40.2236,-62.0755 55.9727,-95.48984 0,0 -52.3246,24.57355 -52.3246,24.57355 z" />
    <path
       style="fill:#d40000;stroke:#000000;stroke-opacity:0"
       id="path1732"
       d="m 1233.9462,534.02204 c -1.3875,10.05429 -2.0971,13.94306 -2.638,25.12971 -0.6201,12.82786 -0.6673,39.80074 -0.6838,51.43014 -0.099,69.95912 0.3638,-3.04623 -0.2454,72.38589 -2.2075,73.64096 -2.9404,147.38352 -7.6888,220.92044 -2.6674,24.27112 -0.9387,13.1253 -4.7686,33.49953 0,0 49.8148,-24.47599 49.8148,-24.47599 v 0 c 2.1003,-20.1097 1.2268,-9.14728 2.3073,-32.91068 1.1592,-73.29462 2.0111,-146.59347 5.2893,-219.83824 0.6655,-24.40748 1.1011,-48.82233 1.9992,-73.22236 0.9527,-25.88614 1.5113,-52.36245 8.5056,-77.48082 0,0 -51.8916,24.56238 -51.8916,24.56238 z" />
    <path
       style="fill:#d40000;stroke:#000000;stroke-opacity:0"
       id="path1736"
       d="m 1517.037,886.71483 c -15.4616,4.11337 -32.4664,7.31176 -48.4713,4.47559 -4.1716,-0.73924 -8.1663,-2.25954 -12.2495,-3.3893 -4.0869,-2.28193 -8.4405,-4.14097 -12.2607,-6.84577 -23.897,-16.91986 -37.5394,-44.22823 -48.3255,-70.48587 -6.9062,-22.62512 -14.0655,-47.1676 -11.0402,-71.17079 0.4598,-3.64865 1.6531,-7.16684 2.4797,-10.75025 4.3964,-8.67383 4.1058,-10.44339 12.0928,-16.61931 3.0067,-2.32488 13.0257,-7.83884 9.783,-5.85648 -57.1919,34.96285 -43.2879,23.26554 -17.8067,16.51011 2.9913,-0.31993 5.9692,-1.10897 8.9739,-0.95978 16.8205,0.83519 28.4249,17.77363 34.6767,31.59631 2.1109,4.66725 3.3099,9.69545 4.9648,14.54318 2.8742,16.28892 1.451,33.65174 -12.1674,44.98783 -3.0301,2.52228 -13.3547,8.38336 -10.0765,6.19315 11.2564,-7.52061 22.6775,-14.7918 34.0163,-22.18771 -5.145,1.45196 -10.2899,2.90392 -15.4349,4.35588 0,0 -43.7175,33.50385 -43.7175,33.50385 v 0 c 5.1862,-1.24966 10.3725,-2.49932 15.5587,-3.74898 20.5259,-10.81651 41.3806,-21.03088 61.5777,-32.44953 3.5789,-2.02336 6.7861,-4.75429 9.5734,-7.77644 12.602,-13.66382 12.5985,-32.48568 8.9142,-49.52782 -1.8124,-5.13083 -3.2163,-10.42473 -5.437,-15.39249 -6.7457,-15.09075 -19.0359,-34.6625 -36.9842,-37.58944 -3.1867,-0.51968 -6.4551,0.18182 -9.6827,0.27274 -32.9433,7.34069 -40.4796,15.50774 -79.0741,38.1355 -10.3811,6.08634 -16.8233,15.09702 -20.1703,26.49288 -0.6173,3.85068 -1.5647,7.66279 -1.8519,11.55205 -1.8225,24.68084 5.4291,49.55892 13.0942,72.64397 13.692,32.11087 30.9152,64.10223 62.305,81.93569 4.2492,1.45783 8.3789,3.32642 12.7475,4.37348 15.8882,3.8081 32.4643,0.72477 48.3424,-1.35693 0,0 45.6501,-35.46532 45.6501,-35.46532 z" />
    <path
       style="fill:#d40000;stroke:#000000;stroke-opacity:0"
       id="path2850"
       d="m 955.08027,745.21899 c -1.2672,20.7741 -0.70584,41.12096 1.30518,61.83224 4.52423,29.85157 15.09927,58.29217 30.63,84.10045 6.6858,8.47321 3.2376,4.71463 10.1751,11.4288 0,0 33.93735,-21.04572 33.93735,-21.04572 v 0 c -6.9822,-5.79786 -3.4914,-2.4902 -10.2969,-10.10514 -16.8493,-24.94261 -26.76805,-52.03176 -30.67035,-81.94542 -0.3641,-5.15156 -0.8846,-10.29445 -1.0924,-15.45468 -0.6377,-15.83355 0.7882,-31.65112 2.4526,-47.37793 0,0 -36.44058,18.5674 -36.44058,18.5674 z" />
  </g>
</svg>
